<svg aria-hidden="true" style="position: absolute; width: 0; height: 0; overflow: hidden;" version="1.1"
  xmlns="http://www.w3.org/2000/svg" xmlns:xlink="http://www.w3.org/1999/xlink">
  <defs>
    <symbol id="heart-chosen" class="w-6 h-6 text-gray-800 dark:text-white" aria-hidden="true" xmlns="http://www.w3.org/2000/svg" fill="red" viewBox="0 0 24 24">
      <path d="m12.7 20.7 6.2-7.1c2.7-3 2.6-6.5.8-8.7A5 5 0 0 0 16 3c-1.3 0-2.7.4-4 1.4A6.3 6.3 0 0 0 8 3a5 5 0 0 0-3.7 1.9c-1.8 2.2-2 5.8.8 8.7l6.2 7a1 1 0 0 0 1.4 0Z"/>
    </symbol>
    <symbol id="heart" class="w-6 h-6 text-gray-800 dark:text-white" aria-hidden="true" xmlns="http://www.w3.org/2000/svg" fill="none" viewBox="0 0 24 24">
      <path stroke="red" stroke-linecap="round" stroke-linejoin="round" stroke-width="2" d="M12 6C6.5 1 1 8 5.8 13l6.2 7 6.2-7C23 8 17.5 1 12 6Z"/>
    </symbol>
  </defs>
</svg>